<svg id="Layer_1" data-name="Layer 1" xmlns="http://www.w3.org/2000/svg" viewBox="0 0 32 30.78"><defs><style>.cls-1{fill:#013f44;}.cls-2{fill:#ffe600;}.cls-3{fill:#fff;}</style></defs><title>bolbol_icons_ərzaq</title><path class="cls-1" d="M27.58,11.49l0,0H27.3a.33.33,0,0,0-.14,0,.11.11,0,0,0-.08,0L13,18.35V17.1A9.85,9.85,0,0,0,12.5,14L10.76,8.59,9.57,4.88A.92.92,0,0,0,10.38,4v-3A.93.93,0,0,0,9.45,0H3.54a.93.93,0,0,0-.93.93V4a.92.92,0,0,0,.81.91L2.26,8.48a.81.81,0,0,0-.07.22L.49,14A9.85,9.85,0,0,0,0,17.1V28a2.83,2.83,0,0,0,2.83,2.83h7.33a2.82,2.82,0,0,0,2.73-2.14H30.37A1.63,1.63,0,0,0,32,27V19.33c0-3.53-2-7.1-4.42-7.84M9.15,3.68H3.84V1.23H9.15ZM22.21,15.23a2.3,2.3,0,1,0,3.84-1.87l1.31-.63c1.54.59,3.16,3,3.37,6H15.05ZM30.77,27a.4.4,0,0,1-.4.4H24.54A2.91,2.91,0,1,0,19.09,26a2.81,2.81,0,0,0,.39,1.43H13V19.94h.72A2.38,2.38,0,0,0,13.43,21,2.31,2.31,0,1,0,18,21a2.38,2.38,0,0,0-.28-1.09H28.2a3.19,3.19,0,0,0-.41,1.54,3.1,3.1,0,0,0,3,3.09Z"/><path class="cls-2" d="M10.16,29.55H2.83A1.6,1.6,0,0,1,1.23,28V17.1a8.94,8.94,0,0,1,.43-2.72l1.6-5H9.73l1.6,5a8.65,8.65,0,0,1,.43,2.72V28a1.6,1.6,0,0,1-1.6,1.6"/><path class="cls-1" d="M3.23,17.75a.62.62,0,0,0-.62.61v9a.61.61,0,0,0,.62.61.61.61,0,0,0,.61-.61v-9a.61.61,0,0,0-.61-.61"/><path class="cls-1" d="M2.79,16.76a.63.63,0,0,0,.43.19.93.93,0,0,0,.24-.05.72.72,0,0,0,.2-.14.62.62,0,0,0,0-.87.72.72,0,0,0-.2-.14.66.66,0,0,0-.67.14.62.62,0,0,0-.18.43.69.69,0,0,0,.05.24.53.53,0,0,0,.13.2"/><path class="cls-2" d="M30.77,23.35a1.87,1.87,0,0,1-.94-3.4h.94Z"/><path class="cls-2" d="M25.57,15.05a1.08,1.08,0,1,1-2-.46L24.74,14a1.08,1.08,0,0,1,.83,1.05"/><path class="cls-2" d="M16.81,21A1.08,1.08,0,1,1,15.73,20,1.08,1.08,0,0,1,16.81,21"/><polygon class="cls-3" points="4.71 4.91 8.28 4.91 9.33 8.16 3.66 8.16 4.71 4.91"/><path class="cls-2" d="M21.11,27.41a1.69,1.69,0,1,1,1.79,0Z"/></svg>