<svg id="Layer_1" data-name="Layer 1" xmlns="http://www.w3.org/2000/svg" viewBox="0 0 32 27.12"><defs><style>.cls-1{fill:#013f44;}.cls-2{fill:#ffe600;}.cls-3{fill:#fff;}</style></defs><title>bolbol_icons_uşaq aləmi</title><path class="cls-1" d="M28.87,9.33A13.57,13.57,0,0,0,16,0h-.28a13.57,13.57,0,0,0-5.44,1.27l-.18.09a13.58,13.58,0,0,0-7,8,4.31,4.31,0,0,0-.07,8.27,13.55,13.55,0,0,0,25.88,0,4.31,4.31,0,0,0-.07-8.27ZM2.69,16.24a3.22,3.22,0,0,1,0-5.55,13.78,13.78,0,0,0-.3,2.87A14.15,14.15,0,0,0,2.69,16.24Zm26.62,0a14.15,14.15,0,0,0,.26-2.68,13.78,13.78,0,0,0-.3-2.87,3.22,3.22,0,0,1,0,5.55Z"/><path class="cls-2" d="M16,26A12.45,12.45,0,0,1,3.92,16.47c-.06-.24-.11-.48-.15-.71s-.09-.52-.12-.78,0-.54-.06-.81,0-.4,0-.61a12.45,12.45,0,0,1,6.64-11,13.5,13.5,0,0,0,6.91,6.2.45.45,0,0,0,.2,0,.56.56,0,0,0,.21-1.08,12.47,12.47,0,0,1-6.31-5.65,12.29,12.29,0,0,1,4.34-.93,13.67,13.67,0,0,0,3.95,4,.61.61,0,0,0,.31.09A.57.57,0,0,0,20.28,5a.56.56,0,0,0-.16-.78,12.65,12.65,0,0,1-3.19-3A12.45,12.45,0,0,1,28.44,13.56c0,.22,0,.42,0,.64s0,.52,0,.77-.07.53-.12.79-.09.46-.15.7A12.45,12.45,0,0,1,16,26Z"/><path class="cls-3" d="M24.41,5.56a.57.57,0,1,0-.82.78,10.43,10.43,0,0,1,2.89,7.22.56.56,0,1,0,1.12,0A11.57,11.57,0,0,0,24.41,5.56Z"/><path class="cls-3" d="M22.46,5.31a.59.59,0,0,0,.35.12.53.53,0,0,0,.44-.22.55.55,0,0,0-.1-.78L23,4.3a.56.56,0,1,0-.67.89Z"/><path class="cls-1" d="M21.07,12.73a2.64,2.64,0,0,0-2.64,2.64.56.56,0,0,0,1.12,0,1.52,1.52,0,1,1,3,0,.56.56,0,0,0,.56.56.57.57,0,0,0,.57-.56A2.65,2.65,0,0,0,21.07,12.73Z"/><path class="cls-1" d="M13,15.93a.56.56,0,0,0,.56-.56,2.65,2.65,0,0,0-5.29,0,.57.57,0,0,0,.57.56.56.56,0,0,0,.56-.56,1.52,1.52,0,1,1,3,0A.56.56,0,0,0,13,15.93Z"/><path class="cls-1" d="M15.17,17.4h1.66a.56.56,0,1,0,0-1.12H15.17a.56.56,0,1,0,0,1.12Z"/><path class="cls-1" d="M18.72,19.58a4,4,0,0,1-5.44,0,.56.56,0,0,0-.78.81,5,5,0,0,0,7,0,.56.56,0,0,0-.78-.81Z"/></svg>