<svg id="Layer_1" data-name="Layer 1" xmlns="http://www.w3.org/2000/svg" viewBox="0 0 32 28.51"><defs><style>.cls-1{fill:#013f44;}.cls-2{fill:#fff;}.cls-3{fill:#ffe600;}</style></defs><title>bolbol_icons_iş elanları</title><path class="cls-1" d="M18,25.11a.64.64,0,0,0-.63.63.62.62,0,0,0,.63.63.61.61,0,0,0,.63-.63.63.63,0,0,0-.63-.63"/><path class="cls-1" d="M31.81,27.44,29,24.61a4.94,4.94,0,1,0-.89.89l2.83,2.83a.63.63,0,0,0,.88-.89M27.7,24.21a3.64,3.64,0,1,1,0-5.14,3.65,3.65,0,0,1,0,5.14"/><path class="cls-1" d="M15.44,25.11H2.72A.71.71,0,0,1,2,24.35V15.28a.59.59,0,0,0-.63-.63.59.59,0,0,0-.63.63v9.07a2,2,0,0,0,2,2H15.44a.63.63,0,1,0,0-1.26"/><path class="cls-1" d="M18.18,18V15.74L28.6,13.5v1.21a.63.63,0,0,0,1.26,0l0-1.88a2,2,0,0,0,.68-1.46V6.91a2,2,0,0,0-2-2H20.79V2A2.05,2.05,0,0,0,20.21.58,2,2,0,0,0,18.77,0h-7a2,2,0,0,0-2,2V4.88H2a2,2,0,0,0-2,2v4.46a2,2,0,0,0,1.55,2l10.83,2.46V18a.85.85,0,0,0,.84.85h4.11a.85.85,0,0,0,.85-.85M11,4.88V2a.72.72,0,0,1,.77-.76h7a.71.71,0,0,1,.76.76V4.88Z"/><rect class="cls-2" x="13.63" y="14.33" width="3.29" height="3.29"/><path class="cls-3" d="M28.53,6.14H2a.73.73,0,0,0-.76.77v4.46a.76.76,0,0,0,.61.77l10.51,2.35v-.44a.84.84,0,0,1,.84-.84h4.11a.85.85,0,0,1,.85.84v.35l10.51-2.26a.76.76,0,0,0,.61-.77V6.91a.73.73,0,0,0-.77-.77"/></svg>