<svg id="Layer_1" data-name="Layer 1" xmlns="http://www.w3.org/2000/svg" viewBox="0 0 31.74 32"><defs><style>.cls-1{fill:#ffe600;}.cls-2{fill:#013f44;}</style></defs><title>bolbol_icons_super fürsət</title><path class="cls-1" d="M11.71,9.6l2.5-7.78a1.72,1.72,0,0,1,3.28,0L20,9.6h8.22a1.72,1.72,0,0,1,1,3.12l-6.63,4.81,2.54,7.75a1.73,1.73,0,0,1-2.65,1.94l-6.6-4.8L9.27,27.24a1.72,1.72,0,0,1-2.66-1.92l2.54-7.8-6.64-4.8a1.72,1.72,0,0,1,1-3.12Z" transform="translate(0)"/><path class="cls-2" d="M8.25,28.21A2.37,2.37,0,0,1,6,25.12l2.4-7.36L2.14,13.23A2.35,2.35,0,0,1,3.52,9h7.73l2.36-7.34A2.32,2.32,0,0,1,15.85,0h0a2.32,2.32,0,0,1,2.24,1.63L20.47,9h.84a.63.63,0,0,1,0,1.25H20a.61.61,0,0,1-.59-.43L16.9,2a1.07,1.07,0,0,0-1-.76h0a1.07,1.07,0,0,0-1,.76L12.3,9.79a.61.61,0,0,1-.59.43H3.52a1.09,1.09,0,0,0-1,.76,1.06,1.06,0,0,0,.4,1.23L9.52,17a.64.64,0,0,1,.23.7l-2.54,7.8A1.1,1.1,0,0,0,8.9,26.74l6.63-4.83a.62.62,0,0,1,.73,0l6.61,4.8a1.06,1.06,0,0,0,1.29,0,1.08,1.08,0,0,0,.4-1.23L22,17.72a.61.61,0,0,1,.22-.7l6.63-4.81a1.06,1.06,0,0,0,.4-1.23,1.08,1.08,0,0,0-1.05-.76H26.93a.63.63,0,0,1,0-1.25h1.29a2.35,2.35,0,0,1,1.39,4.25l-6.27,4.54,2.41,7.33a2.35,2.35,0,0,1-3.62,2.63L15.9,23.19,9.64,27.75a2.34,2.34,0,0,1-1.39.46" transform="translate(0)"/><path class="cls-2" d="M15.87,32a.62.62,0,0,1-.62-.62V26.32a.63.63,0,1,1,1.25,0v5.06a.63.63,0,0,1-.63.62" transform="translate(0)"/><path class="cls-2" d="M31.12,20.92a.69.69,0,0,1-.2,0l-4.8-1.56a.62.62,0,1,1,.38-1.19l4.81,1.56a.63.63,0,0,1-.19,1.22" transform="translate(0)"/><path class="cls-2" d="M22.32,7.09A.65.65,0,0,1,22,7a.61.61,0,0,1-.13-.87l3-4.09a.62.62,0,1,1,1,.73l-3,4.09a.63.63,0,0,1-.51.26" transform="translate(0)"/><path class="cls-2" d="M9.42,7.09a.64.64,0,0,1-.51-.26l-3-4.09A.62.62,0,0,1,7,2l3,4.09a.63.63,0,0,1-.51,1" transform="translate(0)"/><path class="cls-2" d="M.63,20.92a.63.63,0,0,1-.2-1.22l4.81-1.56a.63.63,0,0,1,.39,1.19L.82,20.89l-.19,0" transform="translate(0)"/><path class="cls-2" d="M24.12,10.22a.6.6,0,0,1-.44-.18.62.62,0,0,1-.18-.44.59.59,0,0,1,.18-.44A.61.61,0,0,1,24.12,9a.6.6,0,0,1,.44.19.59.59,0,0,1,.18.44.62.62,0,0,1-.18.44.59.59,0,0,1-.44.18" transform="translate(0)"/></svg>