<svg id="Layer_1" data-name="Layer 1" xmlns="http://www.w3.org/2000/svg" viewBox="0 0 32 31.95"><defs><style>.cls-1{fill:#013f44;}.cls-2{fill:#ffe600;}</style></defs><title>bolbol_icons_xidmətlər</title><path class="cls-1" d="M5,28.12a.63.63,0,0,1-.9,0,.64.64,0,0,1,.9-.9.65.65,0,0,1,0,.9" transform="translate(0 0)"/><path class="cls-1" d="M28.46,30.91c-.18.7-1.05.87-1.33.92a5.46,5.46,0,0,1-1.07.1A5.67,5.67,0,0,1,21,28.84a.63.63,0,0,1,1-.73.42.42,0,0,1,.11.16,4.69,4.69,0,0,0,.82,1.11,4.44,4.44,0,0,0,4,1.22l.19,0-2.44-2.43a2.51,2.51,0,1,1,3.55-3.55l2.27,2.28a1.36,1.36,0,0,0,.16.17c0-.05,0-.12,0-.2a4.4,4.4,0,0,0-1.21-4,4.48,4.48,0,0,0-5-.89.63.63,0,0,1-.71-.13l-1.34-1.33h-.16a2.08,2.08,0,0,1-2.1-2.09,3,3,0,0,1,0-.42,2.3,2.3,0,0,1-1.32-.65,2.26,2.26,0,0,1-.67-1.45,3.85,3.85,0,0,1-1.45-.11A5.44,5.44,0,0,1,15,14.94a4.1,4.1,0,0,1-.43,1.41l7.34,7.33a.63.63,0,0,1,.13.71,4.48,4.48,0,0,0-.4,2.05.66.66,0,0,1-.17.45.61.61,0,0,1-.44.2.62.62,0,0,1-.65-.6,6,6,0,0,1,.34-2.22l-.88-.89a3.92,3.92,0,0,1-2.22.53l-.5-.08c-.9-.15-1-.16-1.77.63l-2.79,2.79a1.69,1.69,0,0,1-.36,1.84L9.82,31.46A1.69,1.69,0,0,1,8.63,32a1.71,1.71,0,0,1-1.19-.49L5.88,29.91a.64.64,0,0,1,.9-.9l1.55,1.56a.44.44,0,0,0,.61,0l2.36-2.35a.46.46,0,0,0,.13-.31.43.43,0,0,0-.13-.3L8.64,25a.64.64,0,0,1,.45-1.08.63.63,0,0,1,.44.19l2.22,2.21,2.71-2.7c1.19-1.2,1.73-1.17,2.84-1l.49.08a2.44,2.44,0,0,0,1.09-.23l-5-5-.27.29a.63.63,0,0,1-.45.18.62.62,0,0,1-.44-.18.63.63,0,0,1-.18-.45.62.62,0,0,1,.18-.44,3.42,3.42,0,0,0,1.07-2.31,1.59,1.59,0,0,0-.43-1.16.67.67,0,0,1-.19-.47.67.67,0,0,1,.2-.44.63.63,0,0,1,.87,0l1.23,1.23c.72.69,2.21,1.35,3.13.79a1,1,0,0,1,.23-.32,8.56,8.56,0,0,0-.78-.86L14.1,9.37a.28.28,0,0,0-.39,0l-2.86,2.85a2.58,2.58,0,0,0-.7,2c.09,1.59-.66,3.06-2.53,4.92L6.1,20.64,8,22.53a.63.63,0,0,1-.89.89L4.77,21.08a.45.45,0,0,0-.61,0L1.8,23.44a.41.41,0,0,0-.12.3.42.42,0,0,0,.12.3l1.39,1.38a.64.64,0,1,1-.9.9L.91,24.93h0a1.69,1.69,0,0,1,0-2.38l2.37-2.36a1.67,1.67,0,0,1,1.85-.35l1.6-1.61c1.59-1.58,2.24-2.76,2.16-4a4,4,0,0,1,.23-1.58L7.68,11.26A5.69,5.69,0,0,1,.1,4.86c0-.28.22-1.14.92-1.33A1.29,1.29,0,0,1,2.26,4l.23.26L4.7,6.46a1.4,1.4,0,0,0,1.87.08,1.38,1.38,0,0,0-.1-1.85S4.32,2.55,4.26,2.49A2.62,2.62,0,0,1,4,2.25,1.25,1.25,0,0,1,3.54,1C3.73.31,4.59.15,4.87.1a5.69,5.69,0,0,1,6.42,7.56l1.18,1.18.35-.35a1.53,1.53,0,0,1,2.16,0l1.3-1.3a2.32,2.32,0,0,1,3.27,0,2.29,2.29,0,0,1,.67,1.63v.06a2.26,2.26,0,0,1,1.7.68,2.33,2.33,0,0,1,.61,2.16,2.31,2.31,0,0,1,2,2.28v.13a2.09,2.09,0,0,1,1.4,3.57L23.64,20l.68.69a5.69,5.69,0,0,1,7.58,6.4c0,.28-.22,1.14-.92,1.33a1.29,1.29,0,0,1-1.24-.46l-.23-.26-2.2-2.21a1.42,1.42,0,0,0-1.89-.08,1.39,1.39,0,0,0,.11,1.85s2.15,2.14,2.21,2.21a2.26,2.26,0,0,1,.26.23,1.25,1.25,0,0,1,.46,1.23" transform="translate(0 0)"/><path class="cls-2" d="M9.76,11.56a1.45,1.45,0,0,1,.21-.22l1.61-1.61L10.1,8.25a.63.63,0,0,1-.13-.7A4.42,4.42,0,0,0,5.11,1.34l-.19,0,.23.23L7.36,3.8a2.64,2.64,0,0,1,.12,3.61,2.67,2.67,0,0,1-3.67-.06L1.54,5.07a1.36,1.36,0,0,0-.16-.17s0,.12,0,.2a4.43,4.43,0,0,0,1.21,4,4.48,4.48,0,0,0,5,.89.63.63,0,0,1,.71.13Z" transform="translate(0 0)"/><path class="cls-2" d="M18.66,9.55A1,1,0,0,0,19,8.81a1,1,0,0,0-.31-.74,1.06,1.06,0,0,0-1.49,0l-1.3,1.3,1.49,1.48Z" transform="translate(0 0)"/><path class="cls-2" d="M21.05,11.9a1,1,0,0,0-1.5-1.46l-1.3,1.3c.35.35,1.11,1.12,1.44,1.52Z" transform="translate(0 0)"/><path class="cls-2" d="M23,14.73a1.07,1.07,0,0,0,.3-.74,1,1,0,0,0-.3-.73h0a1.06,1.06,0,0,0-.75-.31,1,1,0,0,0-.74.31L19.74,15a1,1,0,0,0,1.48,1.48Z" transform="translate(0 0)"/><path class="cls-2" d="M25.05,16.8a.83.83,0,0,0,.24-.59.87.87,0,0,0-.24-.59.85.85,0,0,0-1.2,0l-2.22,2.22a.81.81,0,0,0-.24.59.82.82,0,0,0,.24.59.84.84,0,0,0,1.19,0Z" transform="translate(0 0)"/></svg>