<svg id="Layer_1" data-name="Layer 1" xmlns="http://www.w3.org/2000/svg" viewBox="0 0 32 9.87"><defs><style>.cls-1{fill:#013f44;}.cls-2{fill:#ffe600;}</style></defs><title>bolbol_icons_nəqliyyat</title><path class="cls-1" d="M32,5.32c0-.16-.45-1.61-3.33-2.68a10.11,10.11,0,0,0-5-.54A17.13,17.13,0,0,0,16,0,50.34,50.34,0,0,0,9.9.53h0L2.15,1.65A2.52,2.52,0,0,0,0,4.13V4.8A2.6,2.6,0,0,0,1.71,7.24l1.58.57a2.9,2.9,0,0,0,5.34.52H23.09a2.91,2.91,0,0,0,5.13,0h2.39A1.4,1.4,0,0,0,32,6.93V5.43A.41.41,0,0,0,32,5.32Zm-.9,1.61a.48.48,0,0,1-.48.48H28.53a2.42,2.42,0,0,0,0-.47A2.92,2.92,0,0,0,23.12,5.5H12.79A2.15,2.15,0,0,1,11.38,5l-1-.85a.47.47,0,0,0-.65,0,.46.46,0,0,0,.05.64l1,.85a3,3,0,0,0,2,.75h10a2.39,2.39,0,0,0-.06.53,3.56,3.56,0,0,0,.05.47H9A3.56,3.56,0,0,0,9,6.94a2.93,2.93,0,0,0-5.85-.15L2,6.38A1.69,1.69,0,0,1,.91,4.8V4.13A1.6,1.6,0,0,1,2.28,2.55l7.27-1,.1.89a.48.48,0,0,0,.36.4l1.52.33h.1a.45.45,0,0,0,.44-.36.44.44,0,0,0-.35-.54L10.52,2l-.06-.58A48.73,48.73,0,0,1,16,.92,17.68,17.68,0,0,1,22.5,2.51l-1.45.55a3.89,3.89,0,0,1-1.91.21l-5.54-.8a.45.45,0,0,0-.51.39.44.44,0,0,0,.38.51l5.54.8a5,5,0,0,0,.67,0,4.64,4.64,0,0,0,1.69-.31L23.71,3a9.12,9.12,0,0,1,4.63.48A5.66,5.66,0,0,1,30.73,5H30a.46.46,0,0,0,0,.91h1.09Z" transform="translate(0 0)"/><circle class="cls-2" cx="6.07" cy="6.94" r="2.01"/><path class="cls-2" d="M25.65,9a2,2,0,1,1,2-2A2,2,0,0,1,25.65,9Z" transform="translate(0 0)"/><path class="cls-1" d="M6.13,6.23,5.36,7a.46.46,0,0,0,0,.65.45.45,0,0,0,.32.13A.46.46,0,0,0,6,7.65l.77-.77a.48.48,0,0,0,0-.65A.46.46,0,0,0,6.13,6.23Z" transform="translate(0 0)"/><path class="cls-1" d="M25.59,6.23a.46.46,0,0,0-.65,0,.48.48,0,0,0,0,.65l.77.77a.46.46,0,0,0,.33.13.45.45,0,0,0,.32-.13.46.46,0,0,0,0-.65Z" transform="translate(0 0)"/></svg>