<svg id="Layer_1" data-name="Layer 1" xmlns="http://www.w3.org/2000/svg" viewBox="0 0 32 31.71"><defs><style>.cls-1{fill:#013f44;}.cls-2{fill:#ffe600;}</style></defs><title>bolbol_icons_kosmetika</title><path class="cls-1" d="M1.83,31.71A1.83,1.83,0,0,1,0,29.88V18.47a.64.64,0,0,1,.64-.64h.2l0-3.33a.64.64,0,0,1,.64-.64h.2l0-8.39a.63.63,0,0,1,.64-.63.71.71,0,0,1,.28.06L5.6,6.45a2.21,2.21,0,0,1,1.23,2V13.9l.16,0a.64.64,0,0,1,.64.64v3.37l.15,0a.64.64,0,0,1,.64.64V29.88a1.83,1.83,0,0,1-1.83,1.83Zm-.55-1.83a.55.55,0,0,0,.55.55H6.59a.56.56,0,0,0,.56-.55v-2L1.28,26.19Zm0-8.16L7.2,23.45l0-4.38-5.87,0Zm.79-3.85,4.32,0,0-2.73-4.28,0Zm.79-4,2.74,0,0-5.42A.94.94,0,0,0,5,7.59L2.86,6.5Z"/><polygon class="cls-2" points="7.19 26.67 1.23 24.89 1.23 22.96 7.19 24.73 7.19 26.67"/><path class="cls-1" d="M32,11.7A11.7,11.7,0,1,0,19.7,23.39v2.24H18.45a3.72,3.72,0,0,0-3.71,3.71v1.73a.6.6,0,0,0,.6.6h9.92a.6.6,0,0,0,.6-.6V29.34a3.72,3.72,0,0,0-3.71-3.71H20.9V23.39A11.73,11.73,0,0,0,32,11.7M22.15,26.83a2.51,2.51,0,0,1,2.51,2.51v1.13H15.93V29.34a2.51,2.51,0,0,1,2.52-2.51Z"/><path class="cls-2" d="M20.3,22.21A10.51,10.51,0,1,1,30.81,11.7,10.53,10.53,0,0,1,20.3,22.21"/><path class="cls-1" d="M13.9,14.18a.64.64,0,0,1-.45-1.09l8.66-8.67a.64.64,0,0,1,.91.9L14.35,14a.64.64,0,0,1-.45.19"/><path class="cls-1" d="M19,15.38a.63.63,0,0,1-.45-.18.65.65,0,0,1-.18-.46.63.63,0,0,1,.18-.45L22.82,10a.64.64,0,1,1,.9.9L19.44,15.2a.67.67,0,0,1-.46.18"/></svg>