<svg id="Layer_1" data-name="Layer 1" xmlns="http://www.w3.org/2000/svg" viewBox="0 0 32 27.91"><defs><style>.cls-1{fill:#013f44;}.cls-2{fill:#ffe600;}</style></defs><title>bolbol_icons_mağaza və şirkətlər</title><path class="cls-1" d="M26.68,26.6a.66.66,0,1,0,.65.65.65.65,0,0,0-.65-.65"/><path class="cls-1" d="M32,8.68,29.94.5A.66.66,0,0,0,29.3,0H2.7a.64.64,0,0,0-.63.5L0,8.68a.88.88,0,0,0,0,.16A4.84,4.84,0,0,0,1.9,12.7a.38.38,0,0,1,.15.29V27.25a.66.66,0,0,0,.65.66H12.93a.67.67,0,0,0,.66-.66V20.09a.36.36,0,0,1,.36-.36h4.1a.36.36,0,0,1,.36.36v7.16a.67.67,0,0,0,.66.66h5a.66.66,0,0,0,.65-.66.65.65,0,0,0-.65-.65h-4a.38.38,0,0,1-.37-.37V19.07a.66.66,0,0,0-.65-.66H12.93a.66.66,0,0,0-.65.66v7.16a.38.38,0,0,1-.37.37H3.72a.37.37,0,0,1-.36-.37V13.87a.34.34,0,0,1,.13-.28.38.38,0,0,1,.23-.08h.07a4.06,4.06,0,0,0,.7.08A4.39,4.39,0,0,0,8,11.76a.36.36,0,0,1,.3-.15.35.35,0,0,1,.29.15,4.34,4.34,0,0,0,7.08,0,.36.36,0,0,1,.3-.15.33.33,0,0,1,.29.15,4.35,4.35,0,0,0,7.09,0,.35.35,0,0,1,.29-.15.36.36,0,0,1,.3.15,4.39,4.39,0,0,0,3.54,1.83,4.06,4.06,0,0,0,.7-.08h.07a.38.38,0,0,1,.23.08.34.34,0,0,1,.13.28V27.25a.67.67,0,0,0,.66.66.66.66,0,0,0,.65-.66h0V13a.38.38,0,0,1,.15-.29A4.84,4.84,0,0,0,32,8.84a.88.88,0,0,0,0-.16"/><path class="cls-2" d="M27.51,12.28a3.32,3.32,0,0,1-3.18-3.44.67.67,0,0,0-.66-.66.66.66,0,0,0-.65.66,3.33,3.33,0,0,1-3.18,3.44,3.33,3.33,0,0,1-3.19-3.44.65.65,0,1,0-1.3,0,3.33,3.33,0,0,1-3.19,3.44A3.33,3.33,0,0,1,9,8.84a.66.66,0,0,0-.65-.66.67.67,0,0,0-.66.66,3.32,3.32,0,0,1-3.18,3.44A3.31,3.31,0,0,1,1.32,8.87L3.15,1.59a.35.35,0,0,1,.35-.28h25a.36.36,0,0,1,.36.28L30.69,9a3.3,3.3,0,0,1-3.18,3.31"/></svg>