<svg id="Layer_1" data-name="Layer 1" xmlns="http://www.w3.org/2000/svg" viewBox="0 0 32 24.22"><defs><style>.cls-1{fill:#013f44;}.cls-2{fill:#ffe600;}</style></defs><title>bolbol_icons_elektronika</title><path class="cls-1" d="M30.41,9h-6a1.59,1.59,0,0,0-1.59,1.59V22.22a1.59,1.59,0,0,0,1.59,1.59h6A1.59,1.59,0,0,0,32,22.22V10.61A1.59,1.59,0,0,0,30.41,9Zm1.21,13.2a1.21,1.21,0,0,1-1.21,1.21h-6a1.21,1.21,0,0,1-1.21-1.21v-.07h8.39Zm0-11.53H23.23v-.08A1.21,1.21,0,0,1,24.44,9.4h6a1.21,1.21,0,0,1,1.21,1.21Z"/><path class="cls-1" d="M6.1,10.65a.62.62,0,0,0-.19.46.63.63,0,0,0,.19.46.64.64,0,0,0,.46.19A.65.65,0,0,0,7,11.57a.68.68,0,0,0,.19-.46.65.65,0,0,0-.64-.65.64.64,0,0,0-.46.19"/><path class="cls-1" d="M6.1,10.65a.66.66,0,0,0-.19.46.64.64,0,0,0,.19.45.62.62,0,0,0,.91,0,.64.64,0,0,0,.19-.45A.66.66,0,0,0,7,10.65a.64.64,0,0,0-.91,0"/><rect class="cls-2" x="23.23" y="11.07" width="8.39" height="10.7"/><path class="cls-1" d="M28.38,22.6H26.47a.19.19,0,0,0-.19.19.2.2,0,0,0,.19.19h1.91a.2.2,0,0,0,.19-.19A.19.19,0,0,0,28.38,22.6Z"/><path class="cls-1" d="M25.21,0H2.86A2.86,2.86,0,0,0,0,2.86V16.63a2.87,2.87,0,0,0,2.86,2.86H13.38v3.43H10a.65.65,0,1,0,0,1.3h8.17a.65.65,0,1,0,0-1.3H14.69V19.49h6a.65.65,0,0,0,0-1.3H2.86a1.55,1.55,0,0,1-1.45-1L5.18,13.4a.65.65,0,0,0-.92-.92l-3,3V2.86A1.56,1.56,0,0,1,2.86,1.3h7.5L3.59,8.06a.66.66,0,0,0,0,.92.65.65,0,0,0,.46.19A.62.62,0,0,0,4.51,9l7.64-7.64,0,0h13a1.57,1.57,0,0,1,1.57,1.56v4a.65.65,0,1,0,1.29,0v-4A2.86,2.86,0,0,0,25.21,0Z"/></svg>