<svg id="Layer_1" data-name="Layer 1" xmlns="http://www.w3.org/2000/svg" viewBox="0 0 32 32"><defs><style>.cls-1{fill:#013f44;}.cls-2{fill:#ffe600;}</style></defs><title>bolbol_icons_digər</title><path class="cls-1" d="M7,0a7,7,0,1,0,7,7A7,7,0,0,0,7,0M7,12.63A5.68,5.68,0,1,1,12.63,7,5.68,5.68,0,0,1,7,12.63"/><path class="cls-1" d="M25,18.09a7,7,0,1,0,7,7,6.95,6.95,0,0,0-7-6.95m0,12.63A5.68,5.68,0,1,1,30.72,25,5.68,5.68,0,0,1,25,30.72"/><path class="cls-1" d="M32,7a7,7,0,1,1-7-7,7,7,0,0,1,7,7"/><path class="cls-2" d="M25,12.63A5.68,5.68,0,1,1,30.72,7,5.67,5.67,0,0,1,25,12.63"/><path class="cls-1" d="M7,32a7,7,0,1,1,7-7A7,7,0,0,1,7,32"/><path class="cls-2" d="M7,30.72A5.68,5.68,0,1,1,12.63,25,5.69,5.69,0,0,1,7,30.72"/></svg>