<svg id="Layer_1" data-name="Layer 1" xmlns="http://www.w3.org/2000/svg" viewBox="0 0 32 25.25"><defs><style>.cls-1{fill:#013f44;}.cls-2{fill:#ffe600;}</style></defs><title>bolbol_icons_heyvan_bitki</title><g id="_Group_" data-name="&lt;Group&gt;"><path id="_Path_" data-name="&lt;Path&gt;" class="cls-1" d="M27,7.65a.71.71,0,0,0-.65-.41h-.56a.71.71,0,0,0-.65.41.72.72,0,0,0,.1.77l.28.34a.72.72,0,0,0,.55.26.71.71,0,0,0,.55-.26l.29-.34A.74.74,0,0,0,27,7.65Z" transform="translate(0 0)"/><path id="_Path_2" data-name="&lt;Path&gt;" class="cls-1" d="M24.14,5.13A.63.63,0,0,0,23.7,6.2a.63.63,0,0,0,.89-.89A.67.67,0,0,0,24.14,5.13Z" transform="translate(0 0)"/><path id="_Path_3" data-name="&lt;Path&gt;" class="cls-1" d="M28,6.38a.67.67,0,0,0,.44-.18.63.63,0,0,0,.18-.45.62.62,0,0,0-.18-.44A.67.67,0,0,0,28,5.13a.63.63,0,0,0-.63.62.64.64,0,0,0,.19.45A.63.63,0,0,0,28,6.38Z" transform="translate(0 0)"/><path class="cls-1" d="M31,3.46a5.21,5.21,0,0,0,.15-1A6.69,6.69,0,0,0,31.1,1a1.14,1.14,0,0,0-.59-.82,1.13,1.13,0,0,0-1-.05,6.06,6.06,0,0,0-1.9,1.26,4.88,4.88,0,0,0-.85-.07H25.38a5.93,5.93,0,0,0-.84.06A6.33,6.33,0,0,0,22.64.09,1.15,1.15,0,0,0,21.05,1,6.69,6.69,0,0,0,21,2.51a6.1,6.1,0,0,0,.14.94,5.51,5.51,0,0,0-.59,1.06H11.71a8.59,8.59,0,0,0-3.64.8.62.62,0,0,0-.3.83.61.61,0,0,0,.57.36.65.65,0,0,0,.26-.06,7.38,7.38,0,0,1,3.11-.68H20.2a4.74,4.74,0,0,0-.06.75,5.25,5.25,0,0,0,5.24,5.24h1.24a6.4,6.4,0,0,1-3,3.79l-.34-.71a.62.62,0,0,0-.83-.3.63.63,0,0,0-.3.83L23.83,19a.57.57,0,0,0,.12.18l.73.73a.4.4,0,0,1,.09.44.4.4,0,0,1-.37.24H22.62s-6.76-8.76-6.78-8.77a5,5,0,0,0-3.92-1.9.63.63,0,0,0,0,1.25,3.76,3.76,0,0,1,2.23,6.79.65.65,0,0,0-.22.7.61.61,0,0,0,.59.43h1a2.13,2.13,0,0,1,2,1.5H11.71A7.39,7.39,0,0,1,5,10.06a.63.63,0,0,0-.31-.83.64.64,0,0,0-.83.31,8.66,8.66,0,0,0-.48,5.91A5,5,0,0,0,5,25.25H21.79a.63.63,0,0,0,.63-.62,4.05,4.05,0,0,0-1.15-2.83H24.4A1.65,1.65,0,0,0,25.57,19l-.65-.66-.78-1.66a7.62,7.62,0,0,0,3.8-5.05A5.23,5.23,0,0,0,31,3.46ZM18.83,20.55A3.38,3.38,0,0,0,16,17.83a5,5,0,0,0,.94-2.61L21,20.55Zm7.93-10H25.38A4,4,0,0,1,22.3,4a.6.6,0,0,0,.11-.56,5.78,5.78,0,0,1-.18-1,5.25,5.25,0,0,1,0-1.12,5.25,5.25,0,0,1,1.61,1.16.62.62,0,0,0,.59.18,4,4,0,0,1,.91-.1h1.38a4,4,0,0,1,.91.1.63.63,0,0,0,.6-.18,5.13,5.13,0,0,1,1.61-1.16,6,6,0,0,1,0,1.12,5.71,5.71,0,0,1-.16.92.62.62,0,0,0,.08.65,4,4,0,0,1-3.08,6.52Z" transform="translate(0 0)"/><path class="cls-2" d="M5,24a3.79,3.79,0,0,1-1.25-7.37,8.67,8.67,0,0,0,7.92,5.17h6.63A2.83,2.83,0,0,1,21.1,24Z" transform="translate(0 0)"/><path id="_Path_4" data-name="&lt;Path&gt;" class="cls-1" d="M6,8.11a.59.59,0,0,0,.44-.18.6.6,0,0,0,0-.88A.6.6,0,0,0,6,6.86a.63.63,0,0,0-.44.19.63.63,0,0,0,0,.88A.62.62,0,0,0,6,8.11Z" transform="translate(0 0)"/></g></svg>