<svg id="Layer_1" data-name="Layer 1" xmlns="http://www.w3.org/2000/svg" viewBox="0 0 32 30.46"><defs><style>.cls-1{fill:#013f44;}.cls-2{fill:#ffe600;}</style></defs><title>bolbol_icons_idman_musiqi_hobbi</title><path class="cls-1" d="M16,18.73a5.87,5.87,0,1,0,0,11.73,5.77,5.77,0,0,0,1.6-.22.54.54,0,0,0,.33-.26.52.52,0,0,0,.05-.42.55.55,0,0,0-.53-.4l-.15,0A4.75,4.75,0,1,1,19,28.29a.55.55,0,1,0,.7.85A5.86,5.86,0,0,0,16,18.73"/><path class="cls-1" d="M29.65,14.27v-.62A13.66,13.66,0,0,0,16,0a13.51,13.51,0,0,0-5.54,1.18A13.64,13.64,0,0,0,6,4.36a.57.57,0,0,0,0,.78.54.54,0,0,0,.78,0,12.55,12.55,0,0,1,21.73,8,1.55,1.55,0,0,0-1.34-.78l-1.1.07A10.18,10.18,0,0,0,16,3.48,10.13,10.13,0,0,0,9.09,6.19,9.65,9.65,0,0,0,6,12.32H4.8a1.55,1.55,0,0,0-1.34.78A12.48,12.48,0,0,1,5.57,6.68a.55.55,0,0,0-.91-.62,13.59,13.59,0,0,0-2.31,7.59l.08.53A2.61,2.61,0,0,0,0,16.78v7.46a2.61,2.61,0,0,0,2.6,2.6l.66-.09v.41A1.55,1.55,0,0,0,4.8,28.69h2a1.54,1.54,0,0,0,1.54-1.53V13.86a1.4,1.4,0,0,0-1.29-1.44H7a9.11,9.11,0,0,1,9-7.84,9.25,9.25,0,0,1,9,7.29c0,.15.07.3.09.45a1.55,1.55,0,0,0-1.43,1.54v13.3a1.54,1.54,0,0,0,1.54,1.53h2a1.55,1.55,0,0,0,1.54-1.53l-.09-.32h.75a2.61,2.61,0,0,0,2.6-2.6V16.78a2.46,2.46,0,0,0-2.35-2.51"/><path class="cls-2" d="M30.9,24.24a1.5,1.5,0,0,1-1.5,1.49l-.66.09V18.55a.56.56,0,0,0-1.11,0v8.61a.43.43,0,0,1-.43.43h-2a.43.43,0,0,1-.43-.43V13.86a.44.44,0,0,1,.43-.44h2a.44.44,0,0,1,.43.44v2.48a.56.56,0,0,0,1.11,0l-.09-1.06h.75a1.5,1.5,0,0,1,1.5,1.5Z"/><path class="cls-2" d="M4.37,27.16V13.86a.44.44,0,0,1,.43-.44h2a.44.44,0,0,1,.43.44v13.3a.43.43,0,0,1-.43.43h-2a.43.43,0,0,1-.43-.43"/><path class="cls-2" d="M2.6,25.73a1.5,1.5,0,0,1-1.5-1.49V16.78a1.5,1.5,0,0,1,1.5-1.5l.66-.09h0l.09,10.52v0Z"/><path class="cls-1" d="M12.27,16.43a.55.55,0,0,0,.55-.55V12.11a.54.54,0,0,0-.55-.55.55.55,0,0,0-.55.55v3.77a.55.55,0,0,0,.55.55"/><path class="cls-1" d="M21.59,12.21a.55.55,0,0,0-.55.55v2.47a.55.55,0,1,0,1.1,0V12.76a.55.55,0,0,0-.55-.55"/><path class="cls-1" d="M14.69,16.93V11.06a.55.55,0,0,0-.55-.55.55.55,0,0,0-.55.55v5.87a.55.55,0,0,0,.55.55.55.55,0,0,0,.55-.55"/><path class="cls-1" d="M16.55,16.4V11.58a.55.55,0,1,0-1.1,0V16.4a.55.55,0,1,0,1.1,0"/><path class="cls-1" d="M20.28,16.93V11.06a.55.55,0,0,0-.55-.55.55.55,0,0,0-.55.55v5.87a.55.55,0,0,0,.55.55.55.55,0,0,0,.55-.55"/><path class="cls-1" d="M18.41,14.58V13.41a.55.55,0,0,0-.55-.55.55.55,0,0,0-.55.55v1.17a.55.55,0,0,0,.55.55.55.55,0,0,0,.55-.55"/><path class="cls-1" d="M11,14.58V13.41a.55.55,0,0,0-1.1,0v1.17a.55.55,0,1,0,1.1,0"/><path class="cls-1" d="M19.14,24.6a.92.92,0,0,0-.47-.8L15,21.69a.93.93,0,0,0-1.39.8V26.7a.92.92,0,0,0,.47.8.88.88,0,0,0,.92,0l3.64-2.1a.93.93,0,0,0,.47-.8"/><polygon class="cls-2" points="17.86 24.6 14.75 26.39 14.75 22.8 17.86 24.6"/></svg>