<svg id="Layer_1" data-name="Layer 1" xmlns="http://www.w3.org/2000/svg" viewBox="0 0 32 24.84"><defs><style>.cls-1{fill:#013f44;}.cls-2{fill:#ffe600;}</style></defs><title>bolbol_icons_ev_bağ</title><path class="cls-1" d="M28.48,24.84a.58.58,0,0,1-.57-.57V24L12.6,24l0,.32a.58.58,0,0,1-.57.57H9a.57.57,0,0,1-.57-.57V19.83a2,2,0,0,1,1.63-2l.05-2.37a1.8,1.8,0,0,1,1.79-1.78h7a1.8,1.8,0,0,1,1.19.45,2.19,2.19,0,0,1,1.27-.45h7a1.81,1.81,0,0,1,1.8,1.78v2.3a2.12,2.12,0,0,1,1.8,2v4.44a.57.57,0,0,1-.57.57ZM12.55,22.76l15.31.06L27.91,21l-15.36-.06Zm8.87-7.93A.65.65,0,0,0,21,15a.63.63,0,0,0-.19.49v4.21l7.1.06A2.19,2.19,0,0,1,29,18l0-2.55a.66.66,0,0,0-.66-.65Zm-9.49,0a.66.66,0,0,0-.66.65v2.44a2.13,2.13,0,0,1,1.27,1.81l7,.06.05-4.31a.66.66,0,0,0-.65-.65Z"/><path class="cls-1" d="M.57,24.84a.57.57,0,0,1,0-1.14H2.72L2.78,6.4A6.3,6.3,0,0,1,8.91,0,6.28,6.28,0,0,1,15,5.86,3.62,3.62,0,0,1,18,9.4V10a.56.56,0,0,1-.57.56H11.5a.57.57,0,0,1-.57-.56V9.4a3.56,3.56,0,0,1,2.9-3.48A5,5,0,0,0,8.91,1.13a5.16,5.16,0,0,0-5,5.28V23.65l2.61.05a.57.57,0,0,1,0,1.14ZM14.48,7a2.43,2.43,0,0,0-2.42,2.38l4.77.06A2.35,2.35,0,0,0,14.48,7Z"/><path class="cls-2" d="M9.65,23.59l.06-3.76a.8.8,0,0,1,1.59,0v3.76Z"/><path class="cls-2" d="M29.1,23.59l.06-3.76a.79.79,0,0,1,.8-.77.81.81,0,0,1,.8.77v3.76Z"/><path class="cls-2" d="M14.55,11.68a1.65,1.65,0,0,0,1.52-1.06H13A1.67,1.67,0,0,0,14.55,11.68Z"/></svg>