<svg id="Layer_1" data-name="Layer 1" xmlns="http://www.w3.org/2000/svg" viewBox="0 0 29.44 32"><defs><style>.cls-1{fill:#013f44;}.cls-2{fill:#ffe600;}</style></defs><title>bolbol_icons_geyim</title><path class="cls-1" d="M29.38,12.92l-4-8.83a3.31,3.31,0,0,0-1.73-1.78L19.17.07a.64.64,0,0,0-.45,0,13.13,13.13,0,0,1-8,0,.66.66,0,0,0-.46.05L5.82,2.31A3.31,3.31,0,0,0,4.09,4.09l-4,8.83a.64.64,0,0,0,.24.81l4.82,3V31.36a.64.64,0,0,0,.64.64H23.68a.64.64,0,0,0,.64-.64V16.74l4.82-3a.64.64,0,0,0,.24-.81M18.12,1.49a3.48,3.48,0,0,1-3.4,2.39,3.48,3.48,0,0,1-3.4-2.39,13.5,13.5,0,0,0,6.8,0m6.2,13.74v-4a.64.64,0,1,0-1.28,0V30.72H6.4V11.26a.64.64,0,1,0-1.28,0v4L1.46,12.94l3.8-8.32A2,2,0,0,1,6.39,3.45L7.7,2.8A7.2,7.2,0,0,0,11.64,7,.62.62,0,0,0,11.9,7a.65.65,0,0,0,.59-.39.64.64,0,0,0-.34-.84,5.94,5.94,0,0,1-3.3-3.56L10,1.62a4.75,4.75,0,0,0,4.69,3.54,4.75,4.75,0,0,0,4.69-3.54l1.18.6a5.94,5.94,0,0,1-3.3,3.56.64.64,0,0,0-.34.84.65.65,0,0,0,.59.39A.62.62,0,0,0,17.8,7,7.2,7.2,0,0,0,21.74,2.8l1.31.65a2,2,0,0,1,1.13,1.17L28,12.94Z" transform="translate(0)"/><path class="cls-1" d="M14.72,6.31h0a.64.64,0,0,0-.64.64.64.64,0,1,0,1.28,0,.64.64,0,0,0-.64-.64" transform="translate(0)"/><path class="cls-1" d="M14.72,24.36a1.29,1.29,0,0,1-1.2-.84,3.75,3.75,0,0,0-2.18-2.18,1.27,1.27,0,0,1-.83-1.2,1.29,1.29,0,0,1,.83-1.2,3.65,3.65,0,0,0,2.18-2.17,1.28,1.28,0,0,1,2.4,0,3.65,3.65,0,0,0,2.18,2.17,1.29,1.29,0,0,1,.83,1.2,1.27,1.27,0,0,1-.83,1.2,3.7,3.7,0,0,0-2.18,2.18A1.29,1.29,0,0,1,14.72,24.36Z" transform="translate(0)"/><path class="cls-2" d="M14.72,17.21a4.93,4.93,0,0,0,2.93,2.93,5,5,0,0,0-2.93,2.94,5.06,5.06,0,0,0-2.93-2.94,4.93,4.93,0,0,0,2.93-2.93" transform="translate(0)"/></svg>