<svg id="Layer_1" data-name="Layer 1" xmlns="http://www.w3.org/2000/svg" viewBox="0 0 31.99 32"><defs><style>.cls-1{fill:#013f44;}.cls-2{fill:#ffe600;}</style></defs><title>bolbol_icons_pulsuz</title><path class="cls-1" d="M.07,14.45c0,.06,0,.12,0,.18,0,.43-.06.85-.06,1.27,0,.18,0,.36,0,.53a9.1,9.1,0,0,0,0,.91c0,.21.05.43.07.64s.07.52.12.78.08.45.13.68l.18.74c.06.22.12.44.2.67a7.25,7.25,0,0,0,.26.74c.07.21.15.41.23.61s.26.58.4.87.14.3.22.44a13.81,13.81,0,0,0,.72,1.24l0,0a15.84,15.84,0,0,0,2,2.49.25.25,0,0,1,0,.07s0,0,.06,0a16.6,16.6,0,0,0,2.52,2s0,0,0,0c.4.26.81.5,1.22.72l.45.21c.28.14.57.28.86.4l.35.14.06,0,.43.14.49.17.13,0,.2.07.49.13.47.11.46.11.38.06.52.08.53.07.37,0c.16,0,.32,0,.48,0l.58,0h.37l.44,0c.2,0,.41,0,.61,0h.09l.31,0h0l.33-.05.61-.09.47-.07.31-.07.58-.14c.17,0,.34-.07.5-.12l.33-.1.11,0,.4-.14.52-.19.36-.14c.14-.05.28-.12.41-.18l.56-.26h0L23.8,30l.49-.28.34-.21.4-.27.41-.29c.14-.11.29-.21.42-.32l.34-.26.32-.29.47-.42.32-.3.21-.22.44-.48.46-.54.42-.55.39-.54.17-.24c.08-.12.14-.25.22-.37l.33-.56c.12-.21.23-.42.34-.64s.19-.39.28-.6.18-.41.27-.62.17-.44.25-.67.13-.4.2-.6.14-.48.2-.72.1-.4.14-.6l.15-.74c0-.21.06-.42.08-.63s.05-.29.07-.43a2.81,2.81,0,0,1,0-.29c0-.22,0-.45,0-.68s0-.44,0-.66,0-.48,0-.73,0-.41,0-.62,0-.22,0-.33-.05-.27-.07-.41-.05-.41-.09-.62-.09-.45-.14-.68-.1-.45-.16-.67-.11-.4-.17-.6L31,10.56c-.06-.17-.13-.34-.2-.51s-.21-.51-.32-.76-.15-.31-.23-.46-.25-.49-.38-.73l-.29-.48c-.07-.12-.14-.25-.22-.37l-.08-.1h0a15.86,15.86,0,0,0-2-2.43l0,0-.06,0-.05,0h0L27,4.52h-.27a.55.55,0,0,0-.17,0l-.08.05-.1.07h0L24.59,6.5,6.5,24.59,5.16,25.93A14.83,14.83,0,0,1,3,22.87l-.06-.13c-.19-.36-.36-.73-.52-1.11l-.12-.31c-.12-.32-.24-.65-.34-1L1.85,20c-.09-.34-.17-.67-.24-1,0-.1-.05-.21-.07-.31-.07-.38-.12-.76-.16-1.14a1.1,1.1,0,0,1,0-.18,14.92,14.92,0,0,1,.52-5.48L2,11.6c.11-.33.22-.65.34-1,.06-.15.13-.3.19-.46s.23-.51.36-.76.17-.33.26-.5.27-.47.41-.7l.3-.47c.18-.26.37-.51.56-.76l.26-.33c.3-.36.61-.71.95-1.05h0A14.7,14.7,0,0,1,24,3.67a.65.65,0,0,0,.81-1l-.1-.09a16,16,0,0,0-20,2.11c-.35.35-.69.73-1,1.11-.13.16-.25.33-.38.5S3,6.74,2.79,7l-.41.64c-.12.19-.23.39-.35.59s-.25.47-.37.72-.19.39-.28.58-.21.49-.31.74-.16.44-.23.66-.16.47-.23.7-.14.58-.21.87-.09.35-.12.53c-.09.47-.16,1-.21,1.43Z" transform="translate(0)"/><path class="cls-2" d="M7.41,25.5,25.49,7.42h0l1.34-1.34a15.05,15.05,0,0,1,1.68,2.22l.27.45c.12.22.24.44.35.66l.21.44c.1.22.2.45.29.69s.13.31.19.47.15.44.22.66.11.37.16.56.1.4.14.6.09.43.13.65l.09.54c0,.24.06.47.08.7l0,.56c0,.23,0,.45,0,.68s0,.4,0,.6l0,.63c0,.22-.05.44-.07.66s-.05.38-.09.58-.08.45-.13.68-.08.37-.13.55-.12.44-.18.65-.12.38-.19.57-.14.4-.22.6-.16.39-.25.59-.17.36-.26.54-.21.4-.32.59-.19.34-.29.51-.23.37-.36.55l-.38.54-.36.46-.46.54-.36.4-.43.42-.66.59-.37.31-.16.12-.57.42-.27.18c-.12.09-.25.17-.38.25s-.42.26-.64.38h0c-.17.1-.35.19-.53.28s-.47.23-.71.33-.33.15-.5.21-.61.22-.91.32l-.29.1-.15,0c-.36.1-.73.19-1.1.26l-.29.05c-.35.07-.71.12-1.07.16l-.29,0c-.37,0-.74.05-1.12.05H15.9q-.62,0-1.23-.06h0l-.23,0c-.37,0-.73-.09-1.09-.16L13,30.39l-1-.23-.38-.11c-.32-.1-.64-.21-1-.33l-.33-.13c-.38-.16-.74-.33-1.1-.51L9.14,29a14.63,14.63,0,0,1-3.07-2.17Z" transform="translate(0)"/><path class="cls-1" d="M17,15.2l-.36-.1V8.5c-.2,0-.41,0-.62,0s-.46,0-.67,0v6.23l-.36-.1c-1.48-.47-3-1.29-3-3.21,0-2.17,1.4-3.31,4-3.31a11.06,11.06,0,0,1,3.6.63,1.51,1.51,0,0,0,.28,0,.67.67,0,0,0,.26-1.31A11.39,11.39,0,0,0,16,6.81c-3.43,0-5.48,1.73-5.48,4.61s2,4,4.45,4.73l.36.1v7.27h.41a5.14,5.14,0,0,0,.88-.08V16.62l.36.1h0c1.48.48,3.11,1.33,3.11,3.34,0,2.63-2.25,3.83-4.35,3.83a13,13,0,0,1-4.36-.79.47.47,0,0,0-.24,0,.69.69,0,0,0-.73.65.7.7,0,0,0,.47.65,12.72,12.72,0,0,0,4.86.83c2.8,0,5.8-1.61,5.8-5.13C21.56,17.11,19.45,15.93,17,15.2Z" transform="translate(0)"/><path class="cls-1" d="M16.64,6.48V5.72a.65.65,0,1,0-1.29,0v.79c.22,0,.43,0,.67,0Z" transform="translate(0)"/><path class="cls-1" d="M15.35,25.52v.76a.65.65,0,1,0,1.29,0v-.79a8.49,8.49,0,0,1-.88.05Z" transform="translate(0)"/></svg>