<svg id="Layer_1" data-name="Layer 1" xmlns="http://www.w3.org/2000/svg" viewBox="0 0 32 29.5"><defs><style>.cls-1{fill:#013f44;}.cls-2{fill:#ffe600;}</style></defs><title>bolbol_icons_daşınmaz əmlak</title><path class="cls-1" d="M4.76,29.5a.64.64,0,0,1-.64-.64v-14l-.47.24a2.46,2.46,0,0,1-1.14.27H2.26A2.33,2.33,0,0,1,.07,13.46,2.5,2.5,0,0,1,1,10.88L5.47,7.44a.59.59,0,0,1,.39-.13.62.62,0,0,1,.5.25.63.63,0,0,1-.11.89L1.77,11.89a1.25,1.25,0,0,0-.46,1.28,1.1,1.1,0,0,0,1.08.94h0a1.3,1.3,0,0,0,.86-.25L15.63,4.34A.7.7,0,0,1,16,4.23a.61.61,0,0,1,.39.13l12.35,9.5a1.25,1.25,0,0,0,.75.25,1.23,1.23,0,0,0,1.23-1.23,1.21,1.21,0,0,0-.49-1L16.74,1.53A1.16,1.16,0,0,0,16,1.28a1.27,1.27,0,0,0-.75.25l-4.94,3.8a.61.61,0,0,1-.39.13.63.63,0,0,1-.51-.25.65.65,0,0,1-.13-.47.64.64,0,0,1,.25-.42l5-3.81a2.52,2.52,0,0,1,3,0l5.33,4.1V1.89a.64.64,0,0,1,.64-.64h3.75a.64.64,0,0,1,.64.64V8.47L31,10.88a2.51,2.51,0,0,1-1.52,4.51,2.53,2.53,0,0,1-1.15-.27l-.46-.24v14a.64.64,0,0,1-.64.64ZM5.4,13.83V28.22H26.6V13.83L16,5.68Z" transform="translate(0)"/><path class="cls-1" d="M7.88,7a.64.64,0,0,1-.64-.64.64.64,0,0,1,.64-.64A.64.64,0,0,1,7.88,7" transform="translate(0)"/><path class="cls-1" d="M16,24.72a2,2,0,0,1-1.32-.5l-.95-.81c-2-1.66-3.48-3-3.48-5.2a3.92,3.92,0,0,1,3.87-4.06,3.56,3.56,0,0,1,1.88.51,3.56,3.56,0,0,1,1.88-.51,3.92,3.92,0,0,1,3.87,4.06c0,2.23-1.53,3.54-3.48,5.2l-1,.82a2,2,0,0,1-1.31.49" transform="translate(0)"/><path class="cls-2" d="M14.12,15.43a2.66,2.66,0,0,0-2.6,2.78c0,1.64,1.21,2.67,3,4.22l1,.83a.72.72,0,0,0,.48.18.69.69,0,0,0,.47-.18l1-.83c1.83-1.55,3-2.58,3-4.22a2.67,2.67,0,0,0-2.6-2.78,2.44,2.44,0,0,0-1.88.88,2.44,2.44,0,0,0-1.88-.88" transform="translate(0)"/><path class="cls-1" d="M7.88,7a.64.64,0,0,1-.64-.64.64.64,0,0,1,.64-.64A.64.64,0,0,1,7.88,7" transform="translate(0)"/><polygon class="cls-2" points="26.6 7.49 26.6 2.53 24.13 2.53 24.13 5.59 26.6 7.49"/></svg>